<?xml version="1.0" encoding="UTF-8" standalone="no"?>
<!-- Created with Inkscape (http://www.inkscape.org/) -->

<svg
   xmlns:dc="http://purl.org/dc/elements/1.1/"
   xmlns:cc="http://creativecommons.org/ns#"
   xmlns:rdf="http://www.w3.org/1999/02/22-rdf-syntax-ns#"
   xmlns:svg="http://www.w3.org/2000/svg"
   xmlns="http://www.w3.org/2000/svg"
   xmlns:sodipodi="http://sodipodi.sourceforge.net/DTD/sodipodi-0.dtd"
   xmlns:inkscape="http://www.inkscape.org/namespaces/inkscape"
   width="123.95598mm"
   height="20.871391mm"
   viewBox="0 0 123.95598 20.871391"
   version="1.1"
   id="svg886"
   inkscape:version="0.92.3 (2405546, 2018-03-11)"
   sodipodi:docname="wordmark-portable.svg">
  <defs
     id="defs880" />
  <sodipodi:namedview
     id="base"
     pagecolor="#ffffff"
     bordercolor="#666666"
     borderopacity="1.0"
     inkscape:pageopacity="0.0"
     inkscape:pageshadow="2"
     inkscape:zoom="1.18125"
     inkscape:cx="150.01472"
     inkscape:cy="-53.256404"
     inkscape:document-units="mm"
     inkscape:current-layer="layer1"
     showgrid="false"
     fit-margin-top="0"
     fit-margin-left="0"
     fit-margin-right="0"
     fit-margin-bottom="0"
     inkscape:window-width="1920"
     inkscape:window-height="1025"
     inkscape:window-x="0"
     inkscape:window-y="27"
     inkscape:window-maximized="1" />
  <metadata
     id="metadata883">
    <rdf:RDF>
      <cc:Work
         rdf:about="">
        <dc:format>image/svg+xml</dc:format>
        <dc:type
           rdf:resource="http://purl.org/dc/dcmitype/StillImage" />
        <dc:title></dc:title>
      </cc:Work>
    </rdf:RDF>
  </metadata>
  <g
     inkscape:label="Layer 1"
     inkscape:groupmode="layer"
     id="layer1"
     transform="translate(-24.480563,-113.87118)">
    <g
       aria-label="Nextstrain"
       style="font-style:normal;font-variant:normal;font-weight:normal;font-stretch:normal;font-size:28.92777824px;line-height:1.25;font-family:'Noto Sans';-inkscape-font-specification:'Noto Sans, Normal';font-variant-ligatures:normal;font-variant-caps:normal;font-variant-numeric:normal;font-feature-settings:normal;text-align:center;letter-spacing:0px;word-spacing:0px;writing-mode:lr-tb;text-anchor:middle;fill:#000000;fill-opacity:1;stroke:none;stroke-width:0.26458332"
       id="text1776">
      <path
         d="m 25.218222,114.04475 q 0.202494,0 0.303741,0.0579 0.115711,0.0434 0.245886,0.21695 l 13.263387,17.73273 q -0.04339,-0.43391 -0.04339,-0.8389 v -17.16864 h 1.287286 v 20.4664 h -0.694267 q -0.18803,0 -0.318205,-0.0578 -0.115711,-0.0723 -0.231422,-0.23142 l -13.292314,-17.7472 q 0.04339,0.43392 0.04339,0.80998 v 17.22649 h -1.30175 v -20.4664 h 0.737659 z"
         style="fill:#4377cd;fill-opacity:1;stroke-width:0.26458332"
         id="path1647" />
      <path
         d="m 51.321473,119.88816 q 1.214966,0 2.256366,0.41946 1.0414,0.41945 1.807987,1.22943 0.766586,0.79551 1.200502,1.96708 0.448381,1.17158 0.448381,2.69029 0,0.3182 -0.08678,0.43391 -0.08678,0.11572 -0.289278,0.11572 H 46.186792 v 0.27481 q 0,1.61996 0.376061,2.84939 0.376061,1.22943 1.070328,2.06833 0.694267,0.82444 1.677811,1.2439 0.983545,0.41945 2.198511,0.41945 1.084792,0 1.880306,-0.23142 0.795514,-0.24589 1.330678,-0.53517 0.549627,-0.30374 0.867833,-0.53516 0.318206,-0.24589 0.462844,-0.24589 0.188031,0 0.289278,0.14464 l 0.376061,0.46285 q -0.347133,0.43391 -0.925689,0.80997 -0.564091,0.37607 -1.272822,0.65088 -0.694266,0.26035 -1.504244,0.41945 -0.795514,0.1591 -1.605492,0.1591 -1.475317,0 -2.690283,-0.50623 -1.214967,-0.5207 -2.0828,-1.50425 -0.867834,-0.98354 -1.345142,-2.401 -0.462844,-1.43193 -0.462844,-3.26884 0,-1.54764 0.433916,-2.84939 0.448381,-1.31621 1.272822,-2.25636 0.838906,-0.95462 2.039409,-1.48978 1.214966,-0.53517 2.748139,-0.53517 z m 0.01446,1.02694 q -1.11372,0 -1.996017,0.34713 -0.882297,0.34714 -1.533172,0.99801 -0.636411,0.65088 -1.0414,1.5621 -0.390525,0.91123 -0.5207,2.03941 h 9.546166 q 0,-1.15711 -0.332669,-2.06834 -0.318206,-0.92569 -0.911225,-1.5621 -0.593019,-0.63641 -1.417461,-0.96908 -0.809978,-0.34713 -1.793522,-0.34713 z"
         style="fill:#5097ba;fill-opacity:1;stroke-width:0.26458332"
         id="path1649" />
      <path
         d="m 64.251736,127.14903 -5.01897,-7.02945 h 1.316214 q 0.202495,0 0.303742,0.0868 0.101247,0.0868 0.173566,0.20249 l 4.223456,6.0893 q 0.07232,-0.27481 0.231422,-0.50624 l 3.948642,-5.56859 q 0.08678,-0.13018 0.188031,-0.21696 0.101247,-0.0868 0.26035,-0.0868 h 1.258358 l -5.01897,6.95714 5.221464,7.43443 h -1.316214 q -0.202494,0 -0.318205,-0.11571 -0.115711,-0.13017 -0.188031,-0.24588 l -4.368094,-6.37858 q -0.07232,0.28928 -0.216959,0.50624 l -4.1656,5.87234 q -0.101247,0.13017 -0.216958,0.24588 -0.101247,0.11571 -0.274814,0.11571 h -1.243894 z"
         style="fill:#63ac9a;fill-opacity:1;stroke-width:0.26458332"
         id="path1651" />
      <path
         d="m 78.274479,134.74258 q -1.460853,0 -2.285295,-0.80998 -0.809978,-0.80998 -0.809978,-2.50225 V 121.5949 H 73.11087 q -0.159103,0 -0.26035,-0.0868 -0.101247,-0.0868 -0.101247,-0.24589 v -0.53516 l 2.458861,-0.17357 0.347133,-5.14914 q 0.02893,-0.13018 0.115711,-0.23143 0.08678,-0.10124 0.245887,-0.10124 h 0.650875 v 5.49628 h 4.541661 v 1.02693 H 76.56774 v 9.76313 q 0,0.59302 0.144639,1.02693 0.159102,0.41946 0.419452,0.69427 0.274814,0.27481 0.636411,0.40499 0.361598,0.13017 0.78105,0.13017 0.5207,0 0.896762,-0.14464 0.376061,-0.1591 0.650875,-0.33267 0.274813,-0.18803 0.44838,-0.33266 0.173567,-0.15911 0.274814,-0.15911 0.115711,0 0.231422,0.14464 l 0.376061,0.60748 q -0.549627,0.60749 -1.402997,0.98355 -0.838905,0.3616 -1.75013,0.3616 z"
         style="fill:#7cb879;fill-opacity:1;stroke-width:0.26458332"
         id="path1653" />
      <path
         d="m 92.139473,121.89864 q -0.115712,0.2025 -0.33267,0.2025 -0.159103,0 -0.404989,-0.17357 -0.245886,-0.18803 -0.665339,-0.40499 -0.404989,-0.23142 -1.012472,-0.40499 -0.607483,-0.18803 -1.475317,-0.18803 -0.78105,0 -1.431925,0.23142 -0.636411,0.21696 -1.099255,0.59302 -0.448381,0.37607 -0.694267,0.8823 -0.245886,0.49177 -0.245886,1.0414 0,0.6798 0.347133,1.12818 0.347134,0.44839 0.896761,0.76659 0.564092,0.31821 1.287287,0.54963 0.723194,0.23142 1.460852,0.46284 0.752123,0.23143 1.475317,0.5207 0.723194,0.27482 1.272822,0.69427 0.564092,0.41945 0.911225,1.02694 0.347134,0.60748 0.347134,1.47531 0,0.94016 -0.33267,1.75013 -0.332669,0.80998 -0.983544,1.403 -0.636411,0.59302 -1.576564,0.94015 -0.940153,0.34714 -2.15512,0.34714 -1.518708,0 -2.617964,-0.47731 -1.099255,-0.49177 -1.967089,-1.27282 l 0.318206,-0.49178 q 0.07232,-0.11571 0.159103,-0.17356 0.101247,-0.0579 0.26035,-0.0579 0.18803,0 0.44838,0.23142 0.274814,0.23143 0.723195,0.50624 0.44838,0.26035 1.099255,0.49177 0.665339,0.23142 1.63442,0.23142 0.911225,0 1.605492,-0.24588 0.694266,-0.26035 1.157111,-0.69427 0.462844,-0.43392 0.694266,-1.01247 0.245886,-0.59302 0.245886,-1.2439 0,-0.72319 -0.347133,-1.2005 -0.347133,-0.47731 -0.911225,-0.80998 -0.564092,-0.33267 -1.287286,-0.56409 -0.708731,-0.23142 -1.460853,-0.46284 -0.752122,-0.23142 -1.475316,-0.50624 -0.708731,-0.27481 -1.272823,-0.69426 -0.564091,-0.41946 -0.911225,-1.01248 -0.347133,-0.60748 -0.347133,-1.50424 0,-0.76659 0.332669,-1.47532 0.33267,-0.70873 0.940153,-1.24389 0.621947,-0.53517 1.504245,-0.85337 0.882297,-0.31821 1.981552,-0.31821 1.316214,0 2.328687,0.37606 1.026936,0.37606 1.865841,1.15711 z"
         style="fill:#9abe5c;fill-opacity:1;stroke-width:0.26458332"
         id="path1655" />
      <path
         d="m 100.47881,134.74258 q -1.460854,0 -2.285296,-0.80998 -0.809977,-0.80998 -0.809977,-2.50225 v -9.83545 h -2.068336 q -0.159103,0 -0.26035,-0.0868 -0.101248,-0.0868 -0.101248,-0.24589 v -0.53516 l 2.458861,-0.17357 0.347134,-5.14914 q 0.02893,-0.13018 0.115711,-0.23143 0.08678,-0.10124 0.245886,-0.10124 h 0.650875 v 5.49628 h 4.54166 v 1.02693 h -4.54166 v 9.76313 q 0,0.59302 0.144639,1.02693 0.159103,0.41946 0.419453,0.69427 0.274814,0.27481 0.636411,0.40499 0.361597,0.13017 0.781047,0.13017 0.5207,0 0.89676,-0.14464 0.37607,-0.1591 0.65088,-0.33267 0.27481,-0.18803 0.44838,-0.33266 0.17357,-0.15911 0.27481,-0.15911 0.11571,0 0.23143,0.14464 l 0.37606,0.60748 q -0.54963,0.60749 -1.403,0.98355 -0.83891,0.3616 -1.75013,0.3616 z"
         style="fill:#b9bc4a;fill-opacity:1;stroke-width:0.26458332"
         id="path1657" />
      <path
         d="m 106.43206,134.51115 v -14.39157 h 0.73766 q 0.24588,0 0.34713,0.10125 0.10125,0.10125 0.13018,0.34714 l 0.10124,3.02295 q 0.33267,-0.8823 0.75213,-1.5621 0.43391,-0.69427 0.98354,-1.17158 0.56409,-0.47731 1.24389,-0.72319 0.69427,-0.26035 1.53318,-0.26035 0.44838,0 0.88229,0.0868 0.43392,0.0723 0.76659,0.27482 l -0.11571,0.95461 q -0.0723,0.23142 -0.27481,0.23142 -0.17357,0 -0.53517,-0.10124 -0.34713,-0.10125 -0.92569,-0.10125 -0.8389,0 -1.48978,0.26035 -0.65087,0.26035 -1.15711,0.76659 -0.50624,0.49177 -0.89676,1.24389 -0.37606,0.73766 -0.69427,1.70674 v 9.31474 z"
         style="fill:#d4b13f;fill-opacity:1;stroke-width:0.26458332"
         id="path1659" />
      <path
         d="m 125.51038,134.51115 q -0.43392,0 -0.53517,-0.40498 l -0.20249,-1.83692 q -0.59302,0.57856 -1.18604,1.0414 -0.57856,0.46285 -1.21497,0.78105 -0.63641,0.31821 -1.37407,0.47731 -0.73765,0.17357 -1.61995,0.17357 -0.73766,0 -1.43193,-0.21696 -0.69426,-0.21696 -1.24389,-0.66534 -0.53517,-0.44838 -0.86783,-1.14265 -0.31821,-0.70873 -0.31821,-1.69227 0,-0.91123 0.5207,-1.69228 0.5207,-0.78105 1.63442,-1.3596 1.11372,-0.57856 2.84939,-0.92569 1.75013,-0.34714 4.19452,-0.40499 v -1.50425 q 0,-1.99601 -0.86783,-3.06634 -0.85337,-1.08479 -2.54564,-1.08479 -1.0414,0 -1.77906,0.28928 -0.7232,0.28927 -1.22943,0.63641 -0.50624,0.34713 -0.82445,0.63641 -0.3182,0.28928 -0.53516,0.28928 -0.1591,0 -0.26035,-0.0723 -0.10125,-0.0723 -0.17357,-0.18803 l -0.24588,-0.41946 q 1.12818,-1.12818 2.37208,-1.70674 1.24389,-0.57855 2.82045,-0.57855 1.15712,0 2.02495,0.37606 0.86783,0.3616 1.43192,1.05586 0.57856,0.67981 0.86784,1.66335 0.28927,0.96908 0.28927,2.16958 v 9.3726 z m -5.78556,-0.76658 q 0.83891,0 1.53317,-0.17357 0.70873,-0.18803 1.30175,-0.50623 0.60749,-0.33267 1.12819,-0.78105 0.5207,-0.44839 1.02693,-0.96909 v -3.74614 q -2.05387,0.0579 -3.54365,0.3182 -1.48978,0.24589 -2.45886,0.67981 -0.95462,0.43391 -1.41746,1.0414 -0.44838,0.59302 -0.44838,1.3596 0,0.7232 0.23142,1.25836 0.24589,0.5207 0.63641,0.86783 0.40499,0.33267 0.92569,0.49178 0.5207,0.1591 1.08479,0.1591 z"
         style="fill:#e49938;fill-opacity:1;stroke-width:0.26458332"
         id="path1661" />
      <path
         d="m 132.20354,120.11958 v 14.39157 h -1.37407 v -14.39157 z m 0.59302,-4.96111 q 0,0.26035 -0.11571,0.49177 -0.10125,0.21696 -0.27481,0.39053 -0.17357,0.17356 -0.40499,0.27481 -0.23142,0.10125 -0.49177,0.10125 -0.26035,0 -0.49178,-0.10125 -0.23142,-0.10125 -0.40498,-0.27481 -0.17357,-0.17357 -0.27482,-0.39053 -0.10125,-0.23142 -0.10125,-0.49177 0,-0.26035 0.10125,-0.49177 0.10125,-0.24589 0.27482,-0.41945 0.17356,-0.17357 0.40498,-0.27482 0.23143,-0.10125 0.49178,-0.10125 0.26035,0 0.49177,0.10125 0.23142,0.10125 0.40499,0.27482 0.17356,0.17356 0.27481,0.41945 0.11571,0.23142 0.11571,0.49177 z"
         style="fill:#e67030;fill-opacity:1;stroke-width:0.26458332"
         id="path1663" />
      <path
         d="m 137.11132,134.51115 v -14.39157 h 0.76659 q 0.36159,0 0.41945,0.3616 l 0.13017,2.16959 q 0.99801,-1.25836 2.29976,-2.01049 1.30175,-0.75212 2.92171,-0.75212 1.18604,0 2.0828,0.37606 0.91122,0.37606 1.50424,1.0848 0.59302,0.70873 0.89676,1.70673 0.30374,0.99801 0.30374,2.25637 v 9.19903 h -1.38853 v -9.19903 q 0,-2.02494 -0.92569,-3.16759 -0.92569,-1.15711 -2.82046,-1.15711 -1.41746,0 -2.63242,0.72319 -1.21497,0.70873 -2.16959,1.98156 v 10.81898 z"
         style="fill:#de3c26;fill-opacity:1;stroke-width:0.26458332"
         id="path1665" />
    </g>
  </g>
</svg>
