<?xml version="1.0" encoding="UTF-8" standalone="no"?>
<svg
   xmlns:dc="http://purl.org/dc/elements/1.1/"
   xmlns:cc="http://creativecommons.org/ns#"
   xmlns:rdf="http://www.w3.org/1999/02/22-rdf-syntax-ns#"
   xmlns:svg="http://www.w3.org/2000/svg"
   xmlns="http://www.w3.org/2000/svg"
   viewBox="0 0 130.39999 41.573334"
   height="41.573334"
   width="130.39999"
   xml:space="preserve"
   id="svg2"
   version="1.1"><metadata
     id="metadata8"><rdf:RDF><cc:Work
         rdf:about=""><dc:format>image/svg+xml</dc:format><dc:type
           rdf:resource="http://purl.org/dc/dcmitype/StillImage" /><dc:title></dc:title></cc:Work></rdf:RDF></metadata><defs
     id="defs6" /><g
     transform="matrix(1.3333333,0,0,-1.3333333,0,41.573333)"
     id="g10"><g
       transform="scale(0.1)"
       id="g12"><path
         id="path14"
         style="fill:#0c0b0b;fill-opacity:1;fill-rule:nonzero;stroke:none"
         d="m 448.637,33.2617 c 0,4.2696 -0.844,7.9141 -1.215,9.375 -3.649,15.3633 -14.613,20.2305 -20.457,21.9375 -4.387,1.2227 -8.172,1.3438 -9.879,1.3438 -5.363,0 -21.316,-1.2266 -28.742,-16.8203 -3.418,-6.8164 -3.656,-13.5196 -3.656,-16.2071 0,-19.3633 12.417,-32.761694 31.914,-32.761694 15.355,0 27.285,8.039064 30.82,23.261694 0.371,1.3477 1.215,5.6094 1.215,9.8711 m -14.985,0.1211 c -0.113,-7.6797 -1.695,-18.1484 -8.64,-22.7851 -1.352,-0.8477 -3.903,-2.31254 -7.926,-2.31254 -3.77,0 -7.063,1.22265 -9.863,3.66014 -4.262,3.6445 -6.102,8.7617 -6.95,14.1289 -0.121,1.0938 -0.484,4.0274 -0.484,7.1875 0,11.9453 4.02,18.6367 8.281,21.6836 3.532,2.5664 7.071,2.8008 8.645,2.8008 1.598,0 4.765,-0.2344 8.051,-2.3125 9.261,-5.8438 8.886,-20.3359 8.886,-22.0508 m 28.582,30.9375 h -9.496 v -9.7344 h 9.496 V 1.71094 h 14.5 V 54.5859 h 11.094 v 9.7344 H 476.734 V 76.875 c 0,0.9805 -0.613,7.4336 4.629,9.2617 1.469,0.6172 2.934,0.6172 3.41,0.6172 1.34,0 2.446,-0.3711 2.922,-0.6172 l 0.133,9.5039 c -1.465,0 -9.629,0.6055 -15.719,-2.0742 -9.629,-4.2656 -9.629,-16.2031 -9.746,-18.5234 -0.129,-1.4649 -0.129,-2.918 -0.129,-4.25 z M 536.07,1.71094 h 26.918 c 6.098,0.11719 8.653,0.48828 11.7,1.21875 11.082,2.67187 16.566,10.10941 18.398,14.00781 1.832,3.9063 1.941,7.6719 1.941,9.1367 0,7.9219 -3.402,12.0664 -5.601,14.3789 -1.09,0.9688 -2.192,1.9532 -3.289,3.0391 l -4.75,4.3906 c 4.992,5.3594 10.238,10.8477 10.238,18.6445 0,2.3125 -0.605,7.0508 -4.516,11.9336 -6.812,8.7813 -16.074,9.1407 -19.976,9.2539 -1.703,0.1172 -3.539,0.1172 -5.238,0 H 536.07 Z m 14.868,75.89846 c 1.816,0.9648 4.859,2.4297 9.855,2.4297 6.711,0 13.777,-2.918 17.055,-9.0039 0.496,-0.8477 1.582,-2.9297 1.582,-5.7305 0,-4.6289 -3.399,-8.293 -4.125,-9.1406 -3.176,-3.5313 -7.563,-6.9493 -7.563,-11.6875 0,-1.4649 0.367,-2.8008 1.102,-4.1485 0.476,-0.7343 1.465,-2.0703 3.043,-3.6523 3.894,-3.6524 9.015,-6.711 9.015,-12.6719 0,-3.5351 -1.336,-6.8203 -3.789,-9.3789 -3.644,-4.0273 -8.886,-5.23437 -14.125,-5.23437 -5.972,0 -9.508,1.32817 -11.933,2.05467 z M 664.77,65.0586 656.977,60.4297 c -10.727,4.3906 -14.258,5.4883 -20.598,5.4883 -12.063,0 -23.52,-6.2188 -28.875,-17.0586 -3.285,-6.7071 -3.535,-13.6446 -3.535,-16.0821 0,-8.2851 2.804,-14.2578 4.269,-17.0625 2.075,-3.5273 4.391,-5.84761 5.485,-6.94527 8.039,-6.9414 18.031,-6.8164 21.316,-6.9414 2.188,-0.11719 4.27,-0.11719 6.332,-0.11719 H 664.77 Z M 650.512,12.3164 c -6.082,-2.0781 -8.52,-2.44921 -11.938,-2.44921 -1.465,-0.11719 -5.355,0.11328 -9.136,1.83201 -8.524,3.8906 -9.629,12.9102 -9.989,15.7227 -0.488,2.914 -0.488,5.3554 -0.488,6.5742 0,2.0703 0,15.4766 9.379,21.5625 3.656,2.3125 7.187,2.6797 8.769,2.6797 8.051,0 11.454,-5.6055 12.434,-8.293 0.969,-2.543 0.969,-5.4687 0.969,-6.3281 z m 26.976,5.1094 -0.117,-13.89064 c 3.16,-1.21094 8.274,-3.406254 16.442,-3.53125375 9.386,0 14.253,2.92578375 17.542,5.71875375 6.219,5.49214 6.708,12.06644 6.708,15.23824 0,2.1954 -0.489,8.5274 -5.856,12.9102 -3.523,2.9258 -8.648,4.5078 -12.922,6.2227 -3.762,1.4531 -5.715,2.5429 -7.18,3.8906 -1.46,1.2226 -2.308,3.164 -2.308,5.2304 0,0.9844 0.23,3.0547 1.836,4.9961 2.797,3.3008 8.269,3.5352 9.121,3.5352 4.262,0 7.797,-1.6992 11.094,-4.2656 1.097,-0.7305 2.062,-1.4532 3.039,-2.3125 v 12.3047 c -4.871,1.5859 -8.524,2.5664 -13.641,2.5664 -3.414,0 -6.582,-0.4922 -7.801,-0.7344 -3.894,-0.8477 -6.453,-2.1953 -7.8,-3.043 -5.356,-3.5312 -8.77,-9.875 -8.77,-16.207 0,-1.8359 0.371,-7.1875 4.145,-11.2109 3.66,-3.8907 10.359,-5.9649 11.328,-6.3321 5.129,-1.7031 12.804,-3.9023 12.804,-10.7226 0,-0.8516 -0.136,-2.6758 -1.464,-4.5078 -1.344,-1.836 -3.903,-4.37896 -9.258,-4.37896 -7.797,0 -13.41,4.74996 -15.114,6.33206 z m 107.938,15.2226 c -0.129,2.4493 0.242,11.2149 -3.414,18.7618 -6.578,13.2812 -20.719,14.5078 -25.098,14.5078 -4.027,0 -15.238,-0.9805 -23.152,-10.3594 -7.313,-8.6523 -7.793,-19.7266 -7.793,-23.2734 0,-15.1016 7.793,-23.02348 12.785,-26.42973 3.418,-2.44531 10.238,-5.726564 20.594,-5.85156375 8.035,0 14.015,1.94922375 16.82,2.92578375 3.156,1.21094 5.844,2.67187 6.934,3.28515 V 18.5195 c -2.797,-2.6679 -3.778,-3.6562 -5.473,-4.8672 -6.219,-4.63667 -11.941,-5.12105 -15.113,-5.12105 -5.121,0 -10.969,1.58595 -14.621,5.23435 -4.625,4.3946 -5.965,11.0899 -6.34,12.7969 -0.36,2.1914 -0.36,3.7734 -0.477,6.0859 z m -43.75,8.0469 c 0.254,1.8281 0.496,3.6602 1.101,5.4766 0.731,2.3164 4.391,11.3398 13.766,11.457 1.34,0 4.148,-0.2461 7.191,-2.1953 5.481,-3.4063 6.329,-8.6445 6.704,-14.6172 z m 69.629,54.9453 H 796.809 V 1.71094 h 14.496 V 95.6406" /><path
         id="path16"
         style="fill:#0c0b0b;fill-opacity:1;fill-rule:nonzero;stroke:none"
         d="m 460.945,211.418 h -14.859 v -48.98 c 0.113,-7.543 0,-11.458 -0.973,-15.102 -1.105,-3.781 -3.047,-6.207 -4.023,-7.43 -1.953,-2.195 -4.879,-4.875 -11.34,-5.968 -2.543,-0.489 -4.617,-0.489 -5.586,-0.489 -12.793,0 -18.047,6.821 -19.984,11.817 -1.465,3.898 -1.836,8.523 -1.707,17.172 v 48.98 h -14.871 v -45.813 c -0.122,-10.105 0.253,-15.589 1.707,-20.097 1.582,-5.367 5,-10.367 9.504,-13.758 3.902,-3.18 12.558,-7.93 25.351,-7.93 11.574,0 19.844,4.016 23.633,6.328 8.883,5.852 11.449,14.383 12.301,18.29 0.847,4.14 0.976,8.402 0.847,17.167 z m 14.989,-23.391 v -62.621 h 14.496 v 51.774 c 2.441,1.23 5.117,2.679 10.84,2.679 9.378,0 13.046,-4.261 14.375,-8.398 0.617,-1.953 0.859,-3.891 0.98,-8.164 V 125.406 H 531 v 37.891 c -0.488,7.07 -0.977,13.277 -6.691,18.152 -6.946,5.965 -16.09,6.578 -33.879,6.578 z m 86.621,0 h -14.496 v -62.632 h 14.496 z m -15.836,15.59 c 0,-4.75 3.89,-8.527 8.523,-8.527 4.746,0 8.649,3.777 8.649,8.527 0,4.758 -3.762,8.649 -8.532,8.649 -4.75,0 -8.64,-3.891 -8.64,-8.649 m 95.883,-15.59 H 629.566 L 611.648,138.07 c -0.855,-2.675 -0.972,-3.289 -2.921,-3.289 l -18.883,53.246 h -15.719 l 23.145,-62.621 h 7.437 c 4.508,0.121 8.035,0.242 11.938,2.676 5.125,3.297 7.554,9.512 9.507,14.867 z m 61.753,-31.679 c -0.125,2.437 0.235,11.222 -3.414,18.761 -6.578,13.289 -20.711,14.496 -25.097,14.496 -4.028,0 -15.231,-0.972 -23.141,-10.351 -7.316,-8.652 -7.801,-19.738 -7.801,-23.277 0,-15.102 7.801,-23.016 12.797,-26.434 3.406,-2.43 10.227,-5.723 20.578,-5.84 8.051,0 14.012,1.945 16.821,2.914 3.16,1.219 5.843,2.68 6.945,3.301 v 12.301 c -2.801,-2.684 -3.785,-3.66 -5.48,-4.879 -6.227,-4.625 -11.946,-5.113 -15.118,-5.113 -5.113,0 -10.957,1.582 -14.625,5.238 -4.625,4.39 -5.961,11.086 -6.324,12.793 -0.367,2.195 -0.367,3.777 -0.484,6.09 z m -43.742,8.043 c 0.246,1.832 0.492,3.656 1.098,5.488 0.727,2.309 4.379,11.328 13.773,11.445 1.329,0 4.141,-0.23 7.192,-2.187 5.472,-3.414 6.324,-8.653 6.695,-14.625 z m 55.2,23.636 v -62.621 h 14.492 v 53.239 c 2.308,1.101 4.992,2.191 10.472,1.828 -0.484,-0.727 -1.336,-1.707 -1.336,-3.782 0,-1.828 0.493,-3.046 0.735,-3.652 1.34,-3.043 4.262,-4.746 7.679,-4.746 5.473,0 8.762,4.016 8.762,9.258 0,2.922 -1.222,4.867 -1.699,5.726 -2.938,4.391 -8.531,4.5 -13.293,4.75 z m 48.136,-46.898 -0.117,-13.899 c 3.164,-1.21 8.281,-3.41 16.449,-3.527 9.375,0 14.262,2.914 17.535,5.723 6.215,5.488 6.715,12.058 6.715,15.234 0,2.192 -0.5,8.528 -5.863,12.918 -3.535,2.914 -8.648,4.496 -12.91,6.203 -3.778,1.453 -5.731,2.551 -7.195,3.899 -1.454,1.226 -2.309,3.164 -2.309,5.23 0,0.977 0.246,3.047 1.836,5 2.789,3.297 8.281,3.539 9.133,3.539 4.261,0 7.793,-1.703 11.093,-4.269 1.082,-0.723 2.071,-1.457 3.036,-2.317 v 12.305 c -4.872,1.578 -8.532,2.57 -13.641,2.57 -3.414,0 -6.578,-0.496 -7.801,-0.734 -3.89,-0.863 -6.457,-2.195 -7.797,-3.055 -5.351,-3.531 -8.769,-9.855 -8.769,-16.199 0,-1.832 0.363,-7.18 4.144,-11.203 3.657,-3.899 10.348,-5.969 11.328,-6.34 5.114,-1.703 12.786,-3.891 12.786,-10.723 0,-0.847 -0.118,-2.679 -1.465,-4.507 -1.328,-1.836 -3.891,-4.379 -9.258,-4.379 -7.781,0 -13.391,4.742 -15.102,6.332 z m 68.957,46.898 h -14.492 v -62.632 h 14.492 z m -15.836,15.59 c 0,-4.75 3.891,-8.527 8.528,-8.527 4.757,0 8.656,3.777 8.656,8.527 0,4.758 -3.781,8.649 -8.531,8.649 -4.762,0 -8.653,-3.891 -8.653,-8.649 m 61.762,-15.59 h -10.957 v 21.438 c 0,1.465 0.117,3.789 -1.953,3.789 -0.473,0 -1.348,-0.254 -1.699,-0.496 -0.614,-0.492 -0.727,-1.457 -0.86,-3.039 -0.851,-5.614 -2.433,-11.094 -6.09,-15.36 -4.992,-6.086 -10.343,-6.218 -13.523,-6.464 v -9.614 h 9.508 v -52.875 h 14.617 v 52.875 h 10.957 z m 73.398,0 h -13.152 l -19.738,-55.312 -19.613,55.312 h -15.973 l 23.769,-62.5 c 1.207,-0.492 1.942,-0.855 2.434,-1.226 1.703,-1.215 2.563,-3.41 2.563,-5.477 0,-4.015 -2.684,-5.961 -3.907,-6.695 -3.656,-1.953 -10.84,-0.977 -11.078,-0.977 l -0.129,-10.964 c 4.996,0 9.864,0 14.625,1.824 5.844,2.074 8.762,5.968 11.446,11.566 1.828,3.547 3.16,7.313 4.507,11.094 l 24.246,63.355" /><path
         id="path18"
         style="fill:#0c0b0b;fill-opacity:1;fill-rule:nonzero;stroke:none"
         d="m 102.734,197.281 c 0,3.867 5.954,3.867 5.954,0 v -81.035 c 0,-3.867 -5.954,-3.867 -5.954,0 z m 0,22.332 c 0,-3.867 5.954,-3.867 5.954,0 v 92.2 h -5.954 z m 0,-125.7067 c 0,3.8632 5.961,3.8632 5.961,0 V 1.71094 h -5.961 z m 105.723,22.3397 c 0,-3.867 5.953,-3.867 5.953,0 v 81.035 c 0,3.867 -5.953,3.867 -5.953,0 z m 0,195.567 h 5.953 v -92.2 c 0,-3.867 -5.953,-3.867 -5.953,0 z m 0,-310.10206 h 5.953 V 93.9063 c 0,3.8632 -5.953,3.8632 -5.953,0 z M 200.012,211.371 c 3.941,0 3.941,-5.84 0,-5.84 h -82.879 c -3.945,0 -3.945,5.84 0,5.84 z M 117.133,108 c -3.945,0 -3.945,-5.836 0,-5.836 h 82.879 c 3.941,0 3.941,5.836 0,5.836 z m 200.023,103.371 v -5.84 h -94.304 c -3.957,0 -3.957,5.84 0,5.84 z m -317.15990625,0 v -5.84 H 94.2852 c 3.9609,0 3.9609,5.84 0,5.84 z M 317.156,108 v -5.836 h -94.304 c -3.957,0 -3.957,5.836 0,5.836 z m -317.15990625,0 v -5.836 H 94.2852 c 3.9609,0 3.9609,5.836 0,5.836 z M 154.465,164.883 c 2.797,-2.723 -1.422,-6.856 -4.215,-4.125 -2.789,2.742 -38.555,37.703 -38.555,37.703 -2.793,2.727 1.43,6.855 4.219,4.117 2.402,-2.344 38.551,-37.695 38.551,-37.695 M 115.914,99.2109 c -2.789,2.7381 -7.012,-1.3945 -4.219,-4.1211 0,0 35.766,-34.9726 38.555,-37.6953 2.793,-2.7343 7.012,1.3907 4.215,4.1211 0,0 -36.149,35.3438 -38.551,37.6953 m 144.285,65.6721 c 2.793,-2.723 -1.414,-6.856 -4.219,-4.125 -2.789,2.742 -38.542,37.703 -38.542,37.703 -2.805,2.727 1.414,6.855 4.207,4.117 2.41,-2.344 38.554,-37.695 38.554,-37.695 m -54.765,33.578 c 2.808,2.742 -1.414,6.855 -4.207,4.129 0,0 -35.762,-34.969 -38.555,-37.695 -2.789,-2.735 1.422,-6.864 4.223,-4.133 0,0 36.136,35.351 38.539,37.699 M 166.895,57.4023 c -2.801,-2.7382 -7.012,1.3907 -4.223,4.1172 2.793,2.7383 38.555,37.6993 38.555,37.6993 2.793,2.7342 7.015,-1.3907 4.207,-4.1172 -2.403,-2.3633 -38.539,-37.6993 -38.539,-37.6993 M 99.7617,198.461 c 2.8013,2.742 -1.414,6.855 -4.207,4.129 0,0 -35.7656,-34.969 -38.5586,-37.695 -2.7852,-2.735 1.418,-6.864 4.2187,-4.133 0,0 36.1485,35.351 38.5469,37.699 m 54.7033,-49.828 c 2.797,2.734 -1.422,6.855 -4.215,4.125 -2.789,-2.735 -38.555,-37.695 -38.555,-37.695 -2.793,-2.739 1.43,-6.856 4.219,-4.129 2.402,2.359 38.551,37.699 38.551,37.699 m -38.551,65.683 c -2.789,-2.738 -7.012,1.391 -4.219,4.118 0,0 35.766,34.976 38.555,37.695 2.793,2.738 7.012,-1.387 4.215,-4.117 0,0 -36.149,-35.336 -38.551,-37.696 m 144.285,-65.683 c 2.793,2.734 -1.414,6.855 -4.219,4.125 -2.789,-2.735 -38.542,-37.695 -38.542,-37.695 -2.805,-2.739 1.414,-6.856 4.207,-4.129 2.41,2.359 38.554,37.699 38.554,37.699 m -54.765,-33.57 c 2.793,-2.739 -1.414,-6.864 -4.219,-4.129 0,0 -35.75,34.961 -38.543,37.699 -2.805,2.734 1.422,6.855 4.215,4.125 0,0 36.144,-35.344 38.547,-37.695 m -38.547,141.066 c -2.793,2.738 -7.02,-1.387 -4.215,-4.125 2.793,-2.731 38.543,-37.695 38.543,-37.695 2.805,-2.731 7.012,1.386 4.219,4.125 -2.403,2.351 -38.547,37.695 -38.547,37.695 M 99.375,115.414 c 2.789,-2.738 -1.4297,-6.863 -4.2187,-4.125 0,0 -35.7579,34.957 -38.5508,37.695 -2.7969,2.739 1.4218,6.86 4.2109,4.125 0,0 36.1563,-35.343 38.5586,-37.695 M 292.828,29.6602 288.609,25.543 217.418,95.1406 c -2.801,2.7422 1.414,6.8634 4.207,4.1328 2.414,-2.3593 71.203,-69.6132 71.203,-69.6132 M 95.5234,99.2539 c 2.793,2.7301 7.0156,-1.4023 4.211,-4.125 L 28.5391,25.5234 24.3359,29.6328 c 0,0 68.7735,67.2656 71.1875,69.6211 M 288.609,288.02 l 4.219,-4.129 -71.203,-69.61 c -2.793,-2.738 -7.008,1.387 -4.207,4.117 2.402,2.36 71.191,69.622 71.191,69.622 M 99.7461,218.379 c 2.7929,-2.731 -1.4297,-6.856 -4.2227,-4.117 L 24.3359,283.871 28.5508,288 c 0,0 68.789,-67.262 71.1953,-69.621 m 193.0819,-85.375 -4.219,-4.106 -20.207,19.747 c -2.793,2.734 1.422,6.855 4.203,4.125 2.43,-2.36 20.223,-19.766 20.223,-19.766 m -24.453,31.914 c -2.789,-2.73 1.43,-6.855 4.219,-4.117 l 20.211,19.758 -4.211,4.113 c 0,0 -17.797,-17.402 -20.219,-19.754 m -85.508,123.133 4.211,-4.129 -20.191,-19.75 c -2.805,-2.742 -7.02,1.387 -4.227,4.113 2.406,2.363 20.207,19.766 20.207,19.766 m -32.59,-23.879 c 2.793,-2.742 7.004,1.387 4.211,4.113 l -20.207,19.766 -4.215,-4.129 c 0,0 17.805,-17.402 20.211,-19.75 M 24.3398,132.961 l 4.2188,-4.121 20.207,19.758 c 2.793,2.726 -1.4258,6.855 -4.2148,4.117 -2.418,-2.36 -20.211,-19.754 -20.211,-19.754 M 48.75,164.883 c 2.7969,-2.723 -1.4141,-6.856 -4.2109,-4.125 l -20.2032,19.762 4.2032,4.121 c 0,0 17.8007,-17.399 20.2109,-19.758 m 85.512,-139.3713 -4.219,4.1133 20.207,19.7656 c 2.793,2.7227 7.012,-1.3906 4.223,-4.1328 -2.403,-2.3476 -20.211,-19.7461 -20.211,-19.7461 m 32.636,23.8867 c -2.793,2.7344 -7.011,-1.3906 -4.218,-4.1289 l 20.211,-19.7461 4.211,4.1094 c 0,0 -17.801,17.4102 -20.204,19.7656" /></g></g></svg>