<?xml version="1.0" encoding="UTF-8" standalone="no"?>
<svg
   xmlns:dc="http://purl.org/dc/elements/1.1/"
   xmlns:cc="http://creativecommons.org/ns#"
   xmlns:rdf="http://www.w3.org/1999/02/22-rdf-syntax-ns#"
   xmlns:svg="http://www.w3.org/2000/svg"
   xmlns="http://www.w3.org/2000/svg"
   viewBox="0 0 130.39999 41.573334"
   height="41.573334"
   width="130.39999"
   xml:space="preserve"
   id="svg2"
   version="1.1"><metadata
     id="metadata8"><rdf:RDF><cc:Work
         rdf:about=""><dc:format>image/svg+xml</dc:format><dc:type
           rdf:resource="http://purl.org/dc/dcmitype/StillImage" /><dc:title></dc:title></cc:Work></rdf:RDF></metadata><defs
     id="defs6" /><g
     transform="matrix(1.3333333,0,0,-1.3333333,0,41.573333)"
     id="g10"><g
       transform="scale(0.1)"
       id="g12"><path
         id="path14"
         style="fill:#0c0b0b;fill-opacity:1;fill-rule:nonzero;stroke:none"
         d="m 388.938,1.69922 h 26.925 c 6.09,0.11719 8.645,0.48437 11.696,1.21094 11.078,2.6875 16.562,10.11714 18.386,14.01954 1.832,3.9023 1.953,7.6719 1.953,9.1367 0,7.9141 -3.406,12.0586 -5.609,14.375 -1.09,0.9649 -2.191,1.9531 -3.289,3.0469 l -4.742,4.3789 c 5,5.3711 10.234,10.8437 10.234,18.6367 0,2.3281 -0.609,7.0742 -4.512,11.9453 -6.828,8.7696 -16.078,9.1406 -19.98,9.2656 -1.707,0.1172 -3.539,0.1172 -5.234,0 h -25.828 z m 14.863,75.89458 c 1.828,0.9804 4.867,2.4453 9.859,2.4453 6.711,0 13.774,-2.9336 17.059,-9.0235 0.492,-0.8476 1.586,-2.9179 1.586,-5.7265 0,-4.6289 -3.403,-8.2813 -4.141,-9.1328 -3.164,-3.5352 -7.555,-6.9454 -7.555,-11.6993 0,-1.457 0.364,-2.789 1.094,-4.1406 0.485,-0.7305 1.465,-2.0781 3.047,-3.6484 3.898,-3.668 9.02,-6.7032 9.02,-12.6797 0,-3.5274 -1.344,-6.8203 -3.786,-9.3672 -3.644,-4.0313 -8.879,-5.25001 -14.121,-5.25001 -5.976,0 -9.508,1.34771 -11.945,2.07031 z m 113.84,-12.5391 -7.801,-4.6289 c -10.723,4.3711 -14.254,5.4726 -20.594,5.4726 -12.058,0 -23.508,-6.2148 -28.875,-17.0468 -3.293,-6.711 -3.531,-13.6524 -3.531,-16.086 0,-8.2929 2.805,-14.2539 4.258,-17.0508 2.082,-3.5429 4.39,-5.85152 5.488,-6.94917 8.039,-6.94922 18.031,-6.83204 21.324,-6.94922 2.188,-0.11719 4.258,-0.11719 6.336,-0.11719 h 23.395 z M 503.383,12.2969 c -6.098,-2.0781 -8.524,-2.43362 -11.942,-2.43362 -1.461,-0.13281 -5.367,0.1211 -9.14,1.81642 -8.528,3.8984 -9.625,12.9219 -9.988,15.7266 -0.489,2.9179 -0.489,5.3593 -0.489,6.5742 0,2.0703 0,15.4765 9.387,21.5625 3.652,2.3203 7.187,2.6797 8.769,2.6797 8.032,0 11.45,-5.6016 12.422,-8.2852 0.981,-2.543 0.981,-5.4805 0.981,-6.3281 z m 26.965,5.1172 -0.118,-13.88676 c 3.168,-1.21875 8.282,-3.410152 16.45,-3.5351525 9.375,0 14.254,2.9179725 17.539,5.7265625 6.211,5.48825 6.703,12.05855 6.703,15.23045 0,2.1914 -0.492,8.5196 -5.856,12.918 -3.523,2.9101 -8.644,4.5039 -12.91,6.207 -3.777,1.461 -5.726,2.5547 -7.183,3.9024 -1.461,1.2148 -2.321,3.164 -2.321,5.2343 0,0.9766 0.243,3.0469 1.825,5 2.812,3.2813 8.293,3.5235 9.14,3.5235 4.266,0 7.801,-1.7031 11.086,-4.2539 1.098,-0.7344 2.074,-1.4649 3.039,-2.3164 v 12.3047 c -4.859,1.5859 -8.519,2.5507 -13.64,2.5507 -3.403,0 -6.575,-0.4765 -7.793,-0.7304 -3.899,-0.8516 -6.461,-2.1836 -7.797,-3.0508 -5.36,-3.5274 -8.762,-9.8594 -8.762,-16.2031 0,-1.8125 0.355,-7.1836 4.137,-11.1993 3.652,-3.9023 10.351,-5.9687 11.316,-6.3398 5.125,-1.7031 12.801,-3.8945 12.801,-10.7188 0,-0.8476 -0.121,-2.6757 -1.461,-4.5117 -1.34,-1.8242 -3.898,-4.38279 -9.254,-4.38279 -7.801,0 -13.402,4.74999 -15.117,6.33599 z m 107.933,15.2226 c -0.121,2.4453 0.239,11.2149 -3.418,18.7656 -6.578,13.2813 -20.715,14.4961 -25.09,14.4961 -4.027,0 -15.238,-0.9726 -23.152,-10.3554 -7.308,-8.6446 -7.793,-19.7266 -7.793,-23.2657 0,-15.1093 7.793,-23.02339 12.793,-26.44136 3.406,-2.42578 10.219,-5.718752 20.582,-5.8437525 8.047,0 14.012,1.9414025 16.817,2.9179725 3.164,1.22265 5.843,2.6875 6.949,3.30078 V 18.5117 c -2.805,-2.6758 -3.785,-3.6679 -5.489,-4.8789 -6.21,-4.62889 -11.941,-5.10546 -15.109,-5.10546 -5.117,0 -10.961,1.58206 -14.613,5.23436 -4.629,4.3828 -5.969,11.0821 -6.34,12.793 -0.363,2.1914 -0.363,3.7695 -0.488,6.082 z m -43.746,8.043 c 0.254,1.832 0.492,3.6601 1.106,5.4922 0.726,2.3086 4.382,11.3203 13.761,11.4414 1.344,0 4.149,-0.2383 7.184,-2.1875 5.492,-3.4102 6.34,-8.6485 6.715,-14.6211 z M 664.164,95.625 H 649.672 V 1.69922 h 14.492 V 95.625" /><path
         id="path16"
         style="fill:#0c0b0b;fill-opacity:1;fill-rule:nonzero;stroke:none"
         d="M 460.934,211.402 H 446.07 v -48.984 c 0.121,-7.539 0,-11.438 -0.968,-15.098 -1.102,-3.785 -3.051,-6.207 -4.028,-7.425 -1.949,-2.2 -4.867,-4.879 -11.328,-5.985 -2.558,-0.476 -4.625,-0.476 -5.609,-0.476 -12.789,0 -18.024,6.82 -19.981,11.816 -1.457,3.902 -1.816,8.523 -1.691,17.168 v 48.984 h -14.871 v -45.804 c -0.117,-10.114 0.242,-15.598 1.703,-20.11 1.586,-5.359 4.996,-10.355 9.508,-13.758 3.894,-3.175 12.543,-7.921 25.332,-7.921 11.578,0 19.863,4.015 23.64,6.328 8.887,5.859 11.453,14.386 12.313,18.281 0.844,4.141 0.965,8.41 0.844,17.18 z m 14.98,-23.39 v -62.625 h 14.508 v 51.781 c 2.43,1.215 5.105,2.68 10.84,2.68 9.383,0 13.031,-4.266 14.375,-8.407 0.609,-1.945 0.855,-3.898 0.972,-8.156 v -37.898 h 14.375 v 37.898 c -0.488,7.067 -0.968,13.274 -6.691,18.153 -6.949,5.96 -16.086,6.574 -33.871,6.574 z m 83.883,0 h -14.492 v -62.625 h 14.492 z m -15.832,15.593 c 0,-4.746 3.894,-8.527 8.523,-8.527 4.746,0 8.649,3.781 8.649,8.527 0,4.75 -3.778,8.645 -8.524,8.645 -4.754,0 -8.648,-3.895 -8.648,-8.645 M 636.27,188.012 H 623.238 L 605.32,138.059 c -0.847,-2.672 -0.965,-3.289 -2.914,-3.289 l -18.89,53.242 h -15.719 l 23.148,-62.625 h 7.434 c 4.504,0.121 8.039,0.254 11.937,2.679 5.118,3.297 7.559,9.508 9.508,14.868 z m 61.753,-31.684 c -0.117,2.445 0.239,11.215 -3.406,18.766 -6.594,13.281 -20.715,14.5 -25.105,14.5 -4.02,0 -15.231,-0.977 -23.145,-10.36 -7.308,-8.652 -7.797,-19.726 -7.797,-23.273 0,-15.102 7.797,-23.016 12.793,-26.426 3.41,-2.445 10.235,-5.726 20.59,-5.844 8.035,0 14.004,1.95 16.813,2.914 3.16,1.219 5.851,2.676 6.937,3.293 v 12.305 c -2.797,-2.676 -3.777,-3.652 -5.476,-4.867 -6.219,-4.629 -11.946,-5.117 -15.106,-5.117 -5.117,0 -10.965,1.574 -14.629,5.234 -4.625,4.395 -5.961,11.078 -6.336,12.797 -0.351,2.184 -0.351,3.758 -0.484,6.078 z m -43.742,8.039 c 0.25,1.836 0.492,3.66 1.102,5.496 0.73,2.309 4.387,11.321 13.758,11.45 1.343,0 4.156,-0.247 7.191,-2.192 5.484,-3.414 6.34,-8.656 6.711,-14.617 z m 55.188,23.645 v -62.625 h 14.5 v 53.238 c 2.308,1.098 4.996,2.199 10.48,1.828 -0.488,-0.73 -1.34,-1.699 -1.34,-3.777 0,-1.817 0.485,-3.043 0.731,-3.649 1.336,-3.047 4.265,-4.765 7.676,-4.765 5.476,0 8.765,4.035 8.765,9.277 0,2.914 -1.211,4.859 -1.695,5.719 -2.934,4.383 -8.527,4.512 -13.289,4.754 z m 48.148,-46.899 -0.121,-13.89 c 3.168,-1.223 8.285,-3.414 16.453,-3.532 9.375,0 14.25,2.914 17.539,5.707 6.207,5.5 6.7,12.071 6.7,15.243 0,2.191 -0.493,8.523 -5.848,12.914 -3.535,2.918 -8.645,4.5 -12.914,6.207 -3.778,1.472 -5.727,2.558 -7.184,3.898 -1.461,1.219 -2.32,3.164 -2.32,5.25 0,0.969 0.25,3.031 1.832,4.977 2.797,3.297 8.285,3.551 9.137,3.551 4.261,0 7.785,-1.715 11.082,-4.27 1.097,-0.73 2.074,-1.461 3.043,-2.309 v 12.309 c -4.864,1.574 -8.524,2.551 -13.637,2.551 -3.41,0 -6.582,-0.489 -7.801,-0.742 -3.894,-0.848 -6.461,-2.18 -7.797,-3.039 -5.355,-3.54 -8.773,-9.868 -8.773,-16.2 0,-1.828 0.371,-7.183 4.144,-11.218 3.649,-3.895 10.356,-5.961 11.328,-6.321 5.118,-1.715 12.793,-3.894 12.793,-10.73 0,-0.844 -0.121,-2.676 -1.46,-4.504 -1.336,-1.832 -3.895,-4.387 -9.262,-4.387 -7.797,0 -13.399,4.758 -15.102,6.328 z m 66.071,46.899 h -14.493 v -62.625 h 14.493 z m -15.836,15.593 c 0,-4.746 3.894,-8.527 8.527,-8.527 4.742,0 8.644,3.781 8.644,8.527 0,4.75 -3.777,8.645 -8.523,8.645 -4.754,0 -8.648,-3.895 -8.648,-8.645 m 61.761,-15.593 h -10.961 v 21.433 c 0,1.465 0.118,3.782 -1.949,3.782 -0.492,0 -1.344,-0.243 -1.715,-0.489 -0.601,-0.488 -0.73,-1.457 -0.847,-3.047 -0.848,-5.593 -2.438,-11.086 -6.082,-15.343 -5,-6.102 -10.364,-6.219 -13.528,-6.461 v -9.625 h 9.496 v -52.875 h 14.625 v 52.875 h 10.961 z m 59.094,18.269 c 0.121,4.883 -3.648,9.016 -8.41,9.016 -1.692,0.125 -6.203,-0.727 -8.031,-5.606 -0.239,-0.613 -0.618,-1.582 -0.618,-3.164 -0.109,-4.75 3.786,-8.769 8.54,-8.769 4.746,0 8.398,3.894 8.519,8.523 m -27.164,0.246 c 0,4.754 -3.773,8.77 -8.648,8.77 -3.051,0 -5.844,-1.57 -7.305,-4.133 -1.219,-1.949 -1.344,-3.664 -1.344,-4.519 0,-4.75 3.899,-8.887 8.649,-8.887 1.46,0 5.117,0.484 7.304,4.137 1.219,1.949 1.344,3.785 1.344,4.632 m 32.402,-17.785 -7.793,-4.625 c -10.718,4.383 -14.257,5.477 -20.582,5.477 -12.07,0 -23.519,-6.211 -28.875,-17.055 -3.293,-6.699 -3.535,-13.648 -3.535,-16.082 0,-8.293 2.797,-14.254 4.266,-17.062 2.066,-3.536 4.383,-5.844 5.48,-6.95 8.035,-6.937 18.028,-6.804 21.313,-6.937 2.199,-0.121 4.265,-0.121 6.34,-0.121 h 23.386 z m -14.254,-52.746 c -6.082,-2.086 -8.523,-2.445 -11.937,-2.445 -1.453,-0.117 -5.352,0.133 -9.133,1.836 -8.527,3.894 -9.621,12.918 -9.992,15.711 -0.484,2.91 -0.484,5.359 -0.484,6.578 0,2.066 0,15.472 9.378,21.558 3.653,2.321 7.188,2.68 8.778,2.68 8.035,0 11.441,-5.601 12.422,-8.281 0.968,-2.555 0.968,-5.485 0.968,-6.332 z m 57.704,52.016 H 966.43 v 21.433 c 0,1.465 0.113,3.782 -1.953,3.782 -0.493,0 -1.34,-0.243 -1.704,-0.489 -0.605,-0.488 -0.738,-1.457 -0.855,-3.047 -0.848,-5.593 -2.438,-11.086 -6.09,-15.343 -5,-6.102 -10.348,-6.219 -13.519,-6.461 v -9.625 h 9.507 v -52.875 h 14.614 v 52.875 h 10.965 v 9.75" /><path
         id="path18"
         style="fill:#0c0b0b;fill-opacity:1;fill-rule:nonzero;stroke:none"
         d="m 102.73,197.262 c 0,3.855 5.961,3.855 5.961,0 V 116.23 c 0,-3.863 -5.961,-3.863 -5.961,0 z m 0,22.332 c 0,-3.856 5.961,-3.856 5.961,0 v 92.215 h -5.961 z m 0,-125.7034 c 0,3.875 5.961,3.875 5.961,0 V 1.69531 h -5.961 z m 105.715,22.3514 c 0,-3.875 5.957,-3.875 5.957,0 v 81.02 c 0,3.871 -5.957,3.871 -5.957,0 z m 0,195.567 h 5.957 v -92.215 c 0,-3.856 -5.957,-3.856 -5.957,0 z m 0,-310.11369 h 5.957 V 93.8906 c 0,3.875 -5.957,3.875 -5.957,0 z M 200.004,211.352 c 3.949,0 3.949,-5.829 0,-5.829 h -82.875 c -3.949,0 -3.949,5.829 0,5.829 z M 117.129,107.98 c -3.949,0 -3.949,-5.832 0,-5.832 h 82.875 c 3.949,0 3.949,5.832 0,5.832 z m 200.019,103.372 v -5.829 h -94.296 c -3.957,0 -3.957,5.829 0,5.829 z m -317.15190625,0 v -5.829 H 94.2852 c 3.957,0 3.957,5.829 0,5.829 z M 317.148,107.98 v -5.832 h -94.296 c -3.957,0 -3.957,5.832 0,5.832 z m -317.15190625,0 v -5.832 H 94.2852 c 3.957,0 3.957,5.832 0,5.832 z M 154.465,164.863 c 2.797,-2.734 -1.43,-6.855 -4.223,-4.121 -2.793,2.738 -38.547,37.699 -38.547,37.699 -2.793,2.731 1.414,6.852 4.219,4.122 2.402,-2.356 38.551,-37.7 38.551,-37.7 M 115.914,99.1992 c -2.805,2.7348 -7.012,-1.3906 -4.219,-4.1211 0,0 35.754,-34.9609 38.547,-37.6953 2.793,-2.7305 7.02,1.3828 4.223,4.125 0,0 -36.149,35.3399 -38.551,37.6914 m 144.281,65.6638 c 2.793,-2.734 -1.425,-6.855 -4.218,-4.121 -2.793,2.738 -38.551,37.699 -38.551,37.699 -2.785,2.731 1.426,6.852 4.219,4.122 2.41,-2.356 38.55,-37.7 38.55,-37.7 m -54.761,33.578 c 2.796,2.731 -1.418,6.864 -4.211,4.133 0,0 -35.758,-34.965 -38.547,-37.695 -2.797,-2.738 1.41,-6.859 4.211,-4.125 0,0 36.144,35.34 38.547,37.687 M 166.887,57.3828 c -2.801,-2.7305 -7.008,1.4024 -4.211,4.1367 2.789,2.7188 38.547,37.6914 38.547,37.6914 2.793,2.7271 7.007,-1.3945 4.211,-4.1211 -2.403,-2.3632 -38.547,-37.707 -38.547,-37.707 M 99.7656,198.441 c 2.7854,2.731 -1.4258,6.864 -4.2109,4.133 0,0 -35.7656,-34.965 -38.5625,-37.695 -2.793,-2.738 1.4258,-6.859 4.2226,-4.125 0,0 36.1368,35.34 38.5508,37.687 m 54.6994,-49.824 c 2.797,2.735 -1.43,6.856 -4.223,4.133 -2.793,-2.734 -38.547,-37.707 -38.547,-37.707 -2.793,-2.723 1.414,-6.848 4.219,-4.121 2.402,2.359 38.551,37.695 38.551,37.695 m -38.551,65.684 c -2.805,-2.742 -7.012,1.383 -4.219,4.113 0,0 35.754,34.965 38.547,37.699 2.793,2.735 7.02,-1.375 4.223,-4.121 0,0 -36.149,-35.336 -38.551,-37.691 m 144.281,-65.684 c 2.793,2.735 -1.425,6.856 -4.218,4.133 -2.793,-2.734 -38.551,-37.707 -38.551,-37.707 -2.785,-2.723 1.426,-6.848 4.219,-4.121 2.41,2.359 38.55,37.695 38.55,37.695 m -54.761,-33.574 c 2.793,-2.723 -1.418,-6.848 -4.219,-4.125 0,0 -35.75,34.965 -38.551,37.699 -2.785,2.735 1.422,6.856 4.223,4.121 0,0 36.136,-35.34 38.547,-37.695 m -38.547,141.07 c -2.801,2.727 -7.008,-1.39 -4.223,-4.136 2.801,-2.723 38.551,-37.676 38.551,-37.676 2.801,-2.742 7.012,1.383 4.219,4.113 -2.411,2.359 -38.547,37.699 -38.547,37.699 M 99.3789,115.402 c 2.7851,-2.746 -1.4258,-6.855 -4.2226,-4.121 0,0 -35.75,34.953 -38.5508,37.688 -2.7969,2.73 1.4218,6.855 4.2109,4.121 0,0 36.1484,-35.344 38.5625,-37.688 m 193.4371,-85.7536 -4.211,-4.125 -71.199,69.6094 c -2.789,2.7344 1.422,6.8592 4.219,4.125 2.406,-2.3476 71.191,-69.6094 71.191,-69.6094 M 95.5273,99.2383 c 2.7813,2.7267 7.0077,-1.3906 4.2071,-4.125 L 28.5547,25.5039 24.332,29.6289 c 0,0 68.7813,67.2617 71.1953,69.6094 m 193.0777,188.7537 4.211,-4.129 -71.191,-69.609 c -2.797,-2.731 -7.008,1.402 -4.219,4.129 2.414,2.351 71.199,69.609 71.199,69.609 M 99.7344,218.359 c 2.8006,-2.734 -1.4102,-6.855 -4.2071,-4.121 l -71.1875,69.61 4.2149,4.121 c 0,0 68.7812,-67.254 71.1797,-69.61 m 193.0816,-85.367 -4.211,-4.113 -20.203,19.75 c -2.797,2.734 1.411,6.855 4.215,4.121 2.403,-2.344 20.199,-19.758 20.199,-19.758 m -24.441,31.91 c -2.793,-2.734 1.422,-6.859 4.223,-4.117 l 20.199,19.746 -4.219,4.121 c 0,0 -17.797,-17.402 -20.203,-19.75 m -85.516,123.121 4.219,-4.121 -20.199,-19.757 c -2.801,-2.723 -7.016,1.398 -4.223,4.132 2.41,2.344 20.203,19.746 20.203,19.746 m -32.593,-23.878 c 2.8,-2.723 7.015,1.398 4.222,4.132 l -20.207,19.746 -4.218,-4.121 c 0,0 17.804,-17.402 20.203,-19.757 M 24.3438,132.934 l 4.2226,-4.121 20.1992,19.761 c 2.7969,2.731 -1.4258,6.86 -4.2148,4.133 -2.4102,-2.363 -20.207,-19.773 -20.207,-19.773 m 24.4101,31.929 c 2.7891,-2.734 -1.4258,-6.855 -4.2226,-4.121 l -20.1993,19.766 4.2227,4.113 c 0,0 17.7891,-17.402 20.1992,-19.758 m 85.5041,-139.3708 -4.215,4.1211 20.199,19.7617 c 2.809,2.7266 7.02,-1.4023 4.223,-4.1289 -2.402,-2.3438 -20.207,-19.7539 -20.207,-19.7539 m 32.637,23.8867 c -2.801,2.7344 -7.012,-1.3945 -4.215,-4.1133 l 20.211,-19.7617 4.211,4.125 c 0,0 -17.793,17.3984 -20.207,19.75" /></g></g></svg>